<mxfile host="65bd71144e" pages="2">
    <diagram id="5ghxl-pbiyIqiedONPmC" name="交互方">
        <mxGraphModel dx="298" dy="575" grid="1" gridSize="10" guides="1" tooltips="1" connect="1" arrows="1" fold="1" page="1" pageScale="1" pageWidth="827" pageHeight="1169" math="0" shadow="0">
            <root>
                <mxCell id="0"/>
                <mxCell id="1" parent="0"/>
                <mxCell id="17" value="" style="rounded=0;whiteSpace=wrap;html=1;" parent="1" vertex="1">
                    <mxGeometry x="180" y="60" width="330" height="470" as="geometry"/>
                </mxCell>
                <mxCell id="18" value="配置服务" style="rounded=1;whiteSpace=wrap;html=1;" parent="1" vertex="1">
                    <mxGeometry x="210" y="320" width="270" height="60" as="geometry"/>
                </mxCell>
                <mxCell id="19" value="clientv3(grpc/http)" style="endArrow=classic;html=1;startArrow=classic;startFill=1;" parent="1" source="18" target="20" edge="1">
                    <mxGeometry width="50" height="50" relative="1" as="geometry">
                        <mxPoint x="397" y="250" as="sourcePoint"/>
                        <mxPoint x="567" y="425" as="targetPoint"/>
                    </mxGeometry>
                </mxCell>
                <mxCell id="20" value="&lt;span style=&quot;color: rgb(0 , 0 , 0) ; font-family: &amp;#34;helvetica&amp;#34; ; font-size: 12px ; font-style: normal ; font-weight: 400 ; letter-spacing: normal ; text-align: center ; text-indent: 0px ; text-transform: none ; word-spacing: 0px ; background-color: rgb(248 , 249 , 250) ; display: inline ; float: none&quot;&gt;etcd&lt;/span&gt;" style="shape=cylinder3;whiteSpace=wrap;html=1;boundedLbl=1;backgroundOutline=1;size=15;" parent="1" vertex="1">
                    <mxGeometry x="315" y="440" width="60" height="80" as="geometry"/>
                </mxCell>
                <mxCell id="21" value="grpc" style="endArrow=classic;html=1;horizontal=1;startArrow=none;startFill=1;" parent="1" source="28" edge="1">
                    <mxGeometry width="50" height="50" relative="1" as="geometry">
                        <mxPoint x="425.5" y="240" as="sourcePoint"/>
                        <mxPoint x="380" y="260" as="targetPoint"/>
                    </mxGeometry>
                </mxCell>
                <mxCell id="22" value="&lt;font style=&quot;font-size: 13px&quot;&gt;配置中心&lt;/font&gt;" style="text;html=1;strokeColor=none;fillColor=none;align=center;verticalAlign=middle;whiteSpace=wrap;rounded=0;" parent="1" vertex="1">
                    <mxGeometry x="317" y="80" width="56" height="20" as="geometry"/>
                </mxCell>
                <mxCell id="23" value="服务端命令行工具&lt;br&gt;cfgsrv" style="rounded=1;whiteSpace=wrap;html=1;" parent="1" vertex="1">
                    <mxGeometry x="210" y="120" width="130" height="60" as="geometry"/>
                </mxCell>
                <mxCell id="24" value="grpc" style="endArrow=classic;html=1;horizontal=1;startArrow=classic;startFill=1;entryX=1;entryY=0.5;entryDx=0;entryDy=0;exitX=0;exitY=0.5;exitDx=0;exitDy=0;" parent="1" source="27" target="18" edge="1">
                    <mxGeometry width="50" height="50" relative="1" as="geometry">
                        <mxPoint x="540" y="380" as="sourcePoint"/>
                        <mxPoint x="435.5" y="300" as="targetPoint"/>
                    </mxGeometry>
                </mxCell>
                <mxCell id="25" value="" style="endArrow=classic;html=1;horizontal=1;startArrow=classic;startFill=1;entryX=0.5;entryY=1;entryDx=0;entryDy=0;" parent="1" target="23" edge="1">
                    <mxGeometry width="50" height="50" relative="1" as="geometry">
                        <mxPoint x="275" y="320" as="sourcePoint"/>
                        <mxPoint x="496" y="330" as="targetPoint"/>
                    </mxGeometry>
                </mxCell>
                <mxCell id="26" value="配置端（网页端）" style="rounded=1;whiteSpace=wrap;html=1;" parent="1" vertex="1">
                    <mxGeometry x="350" y="120" width="120" height="60" as="geometry"/>
                </mxCell>
                <mxCell id="27" value="操控中心" style="rounded=1;whiteSpace=wrap;html=1;" parent="1" vertex="1">
                    <mxGeometry x="580" y="380" width="120" height="60" as="geometry"/>
                </mxCell>
                <mxCell id="28" value="envoy" style="rounded=1;whiteSpace=wrap;html=1;" parent="1" vertex="1">
                    <mxGeometry x="350" y="220" width="120" height="60" as="geometry"/>
                </mxCell>
                <mxCell id="29" value="http" style="endArrow=classic;html=1;horizontal=1;startArrow=classic;startFill=1;entryX=0.5;entryY=0;entryDx=0;entryDy=0;exitX=0.5;exitY=1;exitDx=0;exitDy=0;" parent="1" source="26" target="28" edge="1">
                    <mxGeometry width="50" height="50" relative="1" as="geometry">
                        <mxPoint x="605.7142857142858" y="190" as="sourcePoint"/>
                        <mxPoint x="600" y="230" as="targetPoint"/>
                    </mxGeometry>
                </mxCell>
                <mxCell id="30" value="grpc" style="endArrow=classic;html=1;horizontal=1;startArrow=classic;startFill=1;entryX=0.5;entryY=1;entryDx=0;entryDy=0;" parent="1" target="28" edge="1">
                    <mxGeometry width="50" height="50" relative="1" as="geometry">
                        <mxPoint x="410" y="320" as="sourcePoint"/>
                        <mxPoint x="270" y="190" as="targetPoint"/>
                    </mxGeometry>
                </mxCell>
                <mxCell id="31" value="客户端命令行工具&lt;br&gt;cfgtool" style="rounded=1;whiteSpace=wrap;html=1;" parent="1" vertex="1">
                    <mxGeometry x="580" y="260" width="120" height="60" as="geometry"/>
                </mxCell>
                <mxCell id="32" value="grpc" style="endArrow=classic;html=1;horizontal=1;startArrow=classic;startFill=1;entryX=1;entryY=0.5;entryDx=0;entryDy=0;exitX=0;exitY=0.5;exitDx=0;exitDy=0;" parent="1" source="31" target="18" edge="1">
                    <mxGeometry width="50" height="50" relative="1" as="geometry">
                        <mxPoint x="590" y="420" as="sourcePoint"/>
                        <mxPoint x="490" y="360" as="targetPoint"/>
                    </mxGeometry>
                </mxCell>
            </root>
        </mxGraphModel>
    </diagram>
    <diagram id="tY_HG1pgy65-itY2Arw2" name="信息层级">
        <mxGraphModel dx="298" dy="575" grid="1" gridSize="10" guides="1" tooltips="1" connect="1" arrows="1" fold="1" page="1" pageScale="1" pageWidth="827" pageHeight="1169" math="0" shadow="0">
            <root>
                <mxCell id="NY3unQKNjPxRCg-vFaLY-0"/>
                <mxCell id="NY3unQKNjPxRCg-vFaLY-1" parent="NY3unQKNjPxRCg-vFaLY-0"/>
                <mxCell id="NY3unQKNjPxRCg-vFaLY-2" value="" style="html=1;fillColor=#fff2cc;strokeColor=#d6b656;" parent="NY3unQKNjPxRCg-vFaLY-1" vertex="1">
                    <mxGeometry x="169" y="150" width="490" height="280" as="geometry"/>
                </mxCell>
                <mxCell id="NY3unQKNjPxRCg-vFaLY-3" value="" style="html=1;fillColor=#d5e8d4;strokeColor=#82b366;" parent="NY3unQKNjPxRCg-vFaLY-1" vertex="1">
                    <mxGeometry x="179" y="200" width="320" height="220" as="geometry"/>
                </mxCell>
                <mxCell id="NY3unQKNjPxRCg-vFaLY-4" value="" style="html=1;fillColor=#dae8fc;strokeColor=#6c8ebf;" parent="NY3unQKNjPxRCg-vFaLY-1" vertex="1">
                    <mxGeometry x="189" y="250" width="100" height="160" as="geometry"/>
                </mxCell>
                <mxCell id="NY3unQKNjPxRCg-vFaLY-5" value="" style="html=1;fillColor=#ffe6cc;strokeColor=#d79b00;" parent="NY3unQKNjPxRCg-vFaLY-1" vertex="1">
                    <mxGeometry x="199" y="276" width="80" height="51.5" as="geometry"/>
                </mxCell>
                <mxCell id="NY3unQKNjPxRCg-vFaLY-6" value="" style="html=1;fillColor=#ffe6cc;strokeColor=#d79b00;" parent="NY3unQKNjPxRCg-vFaLY-1" vertex="1">
                    <mxGeometry x="199" y="340" width="80" height="50" as="geometry"/>
                </mxCell>
                <mxCell id="NY3unQKNjPxRCg-vFaLY-7" value="..." style="text;align=center;fontStyle=1;verticalAlign=middle;spacingLeft=3;spacingRight=3;strokeColor=none;rotatable=0;points=[[0,0.5],[1,0.5]];portConstraint=eastwest;" parent="NY3unQKNjPxRCg-vFaLY-1" vertex="1">
                    <mxGeometry x="199" y="390" width="80" height="20" as="geometry"/>
                </mxCell>
                <mxCell id="NY3unQKNjPxRCg-vFaLY-8" value="00环境" style="text;align=center;fontStyle=1;verticalAlign=middle;spacingLeft=3;spacingRight=3;strokeColor=none;rotatable=0;points=[[0,0.5],[1,0.5]];portConstraint=eastwest;" parent="NY3unQKNjPxRCg-vFaLY-1" vertex="1">
                    <mxGeometry x="199" y="250" width="80" height="26" as="geometry"/>
                </mxCell>
                <mxCell id="NY3unQKNjPxRCg-vFaLY-9" value="配置数据(版本层面)" style="text;align=center;fontStyle=1;verticalAlign=middle;spacingLeft=3;spacingRight=3;strokeColor=none;rotatable=0;points=[[0,0.5],[1,0.5]];portConstraint=eastwest;" parent="NY3unQKNjPxRCg-vFaLY-1" vertex="1">
                    <mxGeometry x="304" y="210" width="80" height="26" as="geometry"/>
                </mxCell>
                <mxCell id="NY3unQKNjPxRCg-vFaLY-10" value="" style="html=1;fillColor=#dae8fc;strokeColor=#6c8ebf;" parent="NY3unQKNjPxRCg-vFaLY-1" vertex="1">
                    <mxGeometry x="299" y="250" width="90" height="40" as="geometry"/>
                </mxCell>
                <mxCell id="NY3unQKNjPxRCg-vFaLY-11" value="88环境" style="text;align=center;fontStyle=1;verticalAlign=middle;spacingLeft=3;spacingRight=3;strokeColor=none;rotatable=0;points=[[0,0.5],[1,0.5]];portConstraint=eastwest;" parent="NY3unQKNjPxRCg-vFaLY-1" vertex="1">
                    <mxGeometry x="314" y="257" width="60" height="26" as="geometry"/>
                </mxCell>
                <mxCell id="NY3unQKNjPxRCg-vFaLY-12" value="" style="html=1;fillColor=#dae8fc;strokeColor=#6c8ebf;" parent="NY3unQKNjPxRCg-vFaLY-1" vertex="1">
                    <mxGeometry x="299" y="308.5" width="90" height="40" as="geometry"/>
                </mxCell>
                <mxCell id="NY3unQKNjPxRCg-vFaLY-13" value="" style="html=1;fillColor=#dae8fc;strokeColor=#6c8ebf;" parent="NY3unQKNjPxRCg-vFaLY-1" vertex="1">
                    <mxGeometry x="299" y="370" width="90" height="40" as="geometry"/>
                </mxCell>
                <mxCell id="NY3unQKNjPxRCg-vFaLY-14" value="xx环境" style="text;align=center;fontStyle=1;verticalAlign=middle;spacingLeft=3;spacingRight=3;strokeColor=none;rotatable=0;points=[[0,0.5],[1,0.5]];portConstraint=eastwest;" parent="NY3unQKNjPxRCg-vFaLY-1" vertex="1">
                    <mxGeometry x="314" y="318.5" width="60" height="23" as="geometry"/>
                </mxCell>
                <mxCell id="NY3unQKNjPxRCg-vFaLY-15" value="..." style="text;align=center;fontStyle=1;verticalAlign=middle;spacingLeft=3;spacingRight=3;strokeColor=none;rotatable=0;points=[[0,0.5],[1,0.5]];portConstraint=eastwest;" parent="NY3unQKNjPxRCg-vFaLY-1" vertex="1">
                    <mxGeometry x="309" y="378.5" width="70" height="23" as="geometry"/>
                </mxCell>
                <mxCell id="NY3unQKNjPxRCg-vFaLY-16" value="配置中心" style="text;align=center;fontStyle=1;verticalAlign=middle;spacingLeft=3;spacingRight=3;strokeColor=none;rotatable=0;points=[[0,0.5],[1,0.5]];portConstraint=eastwest;" parent="NY3unQKNjPxRCg-vFaLY-1" vertex="1">
                    <mxGeometry x="374" y="160" width="80" height="26" as="geometry"/>
                </mxCell>
                <mxCell id="NY3unQKNjPxRCg-vFaLY-17" value="历史版本1" style="html=1;fillColor=#d5e8d4;strokeColor=#82b366;" parent="NY3unQKNjPxRCg-vFaLY-1" vertex="1">
                    <mxGeometry x="519" y="200" width="110" height="50" as="geometry"/>
                </mxCell>
                <mxCell id="NY3unQKNjPxRCg-vFaLY-18" value="历史版本2" style="html=1;fillColor=#d5e8d4;strokeColor=#82b366;" parent="NY3unQKNjPxRCg-vFaLY-1" vertex="1">
                    <mxGeometry x="519" y="285" width="110" height="50" as="geometry"/>
                </mxCell>
                <mxCell id="NY3unQKNjPxRCg-vFaLY-19" value="..." style="text;align=center;fontStyle=1;verticalAlign=middle;spacingLeft=3;spacingRight=3;strokeColor=none;rotatable=0;points=[[0,0.5],[1,0.5]];portConstraint=eastwest;" parent="NY3unQKNjPxRCg-vFaLY-1" vertex="1">
                    <mxGeometry x="534" y="370" width="80" height="26" as="geometry"/>
                </mxCell>
                <mxCell id="NY3unQKNjPxRCg-vFaLY-20" value="" style="rounded=0;whiteSpace=wrap;html=1;fillColor=#f8cecc;strokeColor=#b85450;" parent="NY3unQKNjPxRCg-vFaLY-1" vertex="1">
                    <mxGeometry x="399" y="250" width="90" height="160" as="geometry"/>
                </mxCell>
                <mxCell id="NY3unQKNjPxRCg-vFaLY-21" value="公共信息文件" style="text;align=center;fontStyle=1;verticalAlign=middle;spacingLeft=3;spacingRight=3;strokeColor=none;rotatable=0;points=[[0,0.5],[1,0.5]];portConstraint=eastwest;" parent="NY3unQKNjPxRCg-vFaLY-1" vertex="1">
                    <mxGeometry x="394" y="250" width="110" height="26" as="geometry"/>
                </mxCell>
                <mxCell id="NY3unQKNjPxRCg-vFaLY-22" value="集群1" style="text;align=center;fontStyle=1;verticalAlign=middle;spacingLeft=3;spacingRight=3;strokeColor=none;rotatable=0;points=[[0,0.5],[1,0.5]];portConstraint=eastwest;" parent="NY3unQKNjPxRCg-vFaLY-1" vertex="1">
                    <mxGeometry x="199" y="276" width="80" height="24" as="geometry"/>
                </mxCell>
                <mxCell id="NY3unQKNjPxRCg-vFaLY-23" value="服务清单" style="text;align=center;fontStyle=0;verticalAlign=middle;spacingLeft=3;spacingRight=3;strokeColor=none;rotatable=0;points=[[0,0.5],[1,0.5]];portConstraint=eastwest;" parent="NY3unQKNjPxRCg-vFaLY-1" vertex="1">
                    <mxGeometry x="199" y="289.75" width="80" height="24" as="geometry"/>
                </mxCell>
                <mxCell id="NY3unQKNjPxRCg-vFaLY-24" value="配置模板组" style="text;align=center;fontStyle=0;verticalAlign=middle;spacingLeft=3;spacingRight=3;strokeColor=none;rotatable=0;points=[[0,0.5],[1,0.5]];portConstraint=eastwest;" parent="NY3unQKNjPxRCg-vFaLY-1" vertex="1">
                    <mxGeometry x="199" y="303.5" width="80" height="24" as="geometry"/>
                </mxCell>
                <mxCell id="NY3unQKNjPxRCg-vFaLY-25" value="集群2" style="text;align=center;fontStyle=1;verticalAlign=middle;spacingLeft=3;spacingRight=3;strokeColor=none;rotatable=0;points=[[0,0.5],[1,0.5]];portConstraint=eastwest;" parent="NY3unQKNjPxRCg-vFaLY-1" vertex="1">
                    <mxGeometry x="199" y="340" width="80" height="24" as="geometry"/>
                </mxCell>
                <mxCell id="NY3unQKNjPxRCg-vFaLY-26" value="配置模板组" style="text;align=center;fontStyle=0;verticalAlign=middle;spacingLeft=3;spacingRight=3;strokeColor=none;rotatable=0;points=[[0,0.5],[1,0.5]];portConstraint=eastwest;" parent="NY3unQKNjPxRCg-vFaLY-1" vertex="1">
                    <mxGeometry x="199" y="370" width="80" height="24" as="geometry"/>
                </mxCell>
                <mxCell id="NY3unQKNjPxRCg-vFaLY-27" value="服务清单" style="text;align=center;fontStyle=0;verticalAlign=middle;spacingLeft=3;spacingRight=3;strokeColor=none;rotatable=0;points=[[0,0.5],[1,0.5]];portConstraint=eastwest;" parent="NY3unQKNjPxRCg-vFaLY-1" vertex="1">
                    <mxGeometry x="199" y="354.5" width="80" height="24" as="geometry"/>
                </mxCell>
                <mxCell id="NY3unQKNjPxRCg-vFaLY-28" value="文件1" style="rounded=0;whiteSpace=wrap;html=1;fillColor=#f5f5f5;strokeColor=#666666;fontColor=#333333;" parent="NY3unQKNjPxRCg-vFaLY-1" vertex="1">
                    <mxGeometry x="409" y="277" width="70" height="36" as="geometry"/>
                </mxCell>
                <mxCell id="NY3unQKNjPxRCg-vFaLY-29" value="文件2" style="rounded=0;whiteSpace=wrap;html=1;fillColor=#f5f5f5;strokeColor=#666666;fontColor=#333333;" parent="NY3unQKNjPxRCg-vFaLY-1" vertex="1">
                    <mxGeometry x="409" y="327.5" width="70" height="36" as="geometry"/>
                </mxCell>
                <mxCell id="NY3unQKNjPxRCg-vFaLY-30" value="..." style="text;align=center;fontStyle=1;verticalAlign=middle;spacingLeft=3;spacingRight=3;strokeColor=none;rotatable=0;points=[[0,0.5],[1,0.5]];portConstraint=eastwest;" parent="NY3unQKNjPxRCg-vFaLY-1" vertex="1">
                    <mxGeometry x="404" y="378.5" width="80" height="20" as="geometry"/>
                </mxCell>
            </root>
        </mxGraphModel>
    </diagram>
</mxfile>